<svg version="1.1" id="Layer_1" xmlns="http://www.w3.org/2000/svg" xmlns:xlink="http://www.w3.org/1999/xlink" x="0px" y="0px"
	 width="100%" viewBox="0 0 141 141" enable-background="new 0 0 141 141" xml:space="preserve">
<path fill="#252335" opacity="1.000000" stroke="none" 
	d="
M142.000000,71.000000 
	C142.000000,71.444336 142.000000,71.888672 141.655075,72.773430 
	C140.533127,74.975479 139.083099,76.740692 139.092484,78.498123 
	C139.139771,87.359573 139.567398,96.218994 139.632858,105.285812 
	C138.294495,105.989395 137.184830,106.486305 135.931595,106.720535 
	C134.969116,106.115662 134.150223,105.773460 133.303406,105.041428 
	C133.275513,102.686829 133.275513,100.722069 133.275513,98.757309 
	C132.443436,98.780548 131.611343,98.803787 130.779266,98.827034 
	C130.779266,100.695312 130.779266,102.563599 130.467102,104.505486 
	C129.200623,106.226120 128.246338,107.873146 127.071327,109.769669 
	C125.302704,113.386703 123.754791,116.754234 122.020393,120.304657 
	C121.585861,120.731735 121.337822,120.975914 120.752357,121.293854 
	C119.199738,121.495262 117.984535,121.622902 116.692337,121.758636 
	C116.883461,119.580490 117.036766,117.833298 117.300735,114.824829 
	C114.472862,116.738724 112.796959,117.872971 110.693871,119.006622 
	C108.843025,119.005386 107.419365,119.004745 106.098969,118.675369 
	C107.891151,116.853539 109.767181,115.520279 111.217056,113.822998 
	C112.705925,112.080048 113.778450,109.981453 115.331192,107.879601 
	C119.331848,104.664162 123.373070,101.930702 126.664268,98.481552 
	C132.878342,91.969238 135.307480,83.960060 133.715302,75.057732 
	C133.401199,73.301506 131.445496,71.838882 130.246857,70.240860 
	C129.819366,70.489799 129.391891,70.738747 128.964401,70.987686 
	C128.964401,75.079636 129.480469,79.257195 128.819855,83.239555 
	C128.153732,87.255157 126.319481,91.076988 124.685989,94.925140 
	C123.824211,93.992439 123.017220,93.184601 122.770699,92.231758 
	C122.028023,89.361237 121.612869,86.402031 120.776199,83.564018 
	C120.650307,83.136986 118.952492,83.173363 117.692719,83.167152 
	C115.612679,86.802818 113.895020,90.307617 111.995590,93.710960 
	C111.209267,95.119881 110.033653,96.311531 109.035080,97.601997 
	C107.984276,96.345566 106.621201,95.236145 105.946365,93.802711 
	C104.448402,90.620857 103.295502,87.276550 101.601746,84.041626 
	C96.764824,85.556335 92.701584,84.847252 88.846939,81.820312 
	C88.470879,81.416420 88.241493,81.200432 87.922066,80.660004 
	C86.911369,78.880333 85.979088,77.437462 85.045319,75.618835 
	C85.042519,74.491562 85.041199,73.740051 85.278732,72.853134 
	C85.327126,71.500687 85.136673,70.283630 84.946228,69.066574 
	C83.980728,69.382225 82.598892,69.402168 82.126114,70.067787 
	C80.573677,72.253494 79.351204,74.673569 77.849594,77.305962 
	C73.246384,84.739212 70.774796,86.319351 65.960976,84.955406 
	C66.640846,82.969910 67.320572,80.984802 68.004456,78.584732 
	C67.733582,76.089462 67.458549,74.009148 67.183517,71.928841 
	C66.708809,71.745514 66.234108,71.562187 65.759399,71.378853 
	C64.444389,76.502998 61.054096,77.763306 56.859852,76.697304 
	C52.835960,75.674599 53.105980,72.148293 53.437569,68.998199 
	C58.639668,70.100052 62.576328,68.972969 65.363312,64.574051 
	C66.136070,63.354340 67.297745,62.305992 68.466278,61.424709 
	C74.340034,56.994831 80.777908,53.150787 84.184143,45.991158 
	C84.634529,45.997414 84.814697,45.999252 85.008698,46.405613 
	C84.924026,50.075256 86.798981,51.172478 89.720619,50.975601 
	C94.135551,50.678093 98.545380,50.305031 103.105576,50.295204 
	C104.043198,52.667267 104.832619,54.708202 105.622032,56.749142 
	C106.176926,56.568119 106.731819,56.387100 107.286705,56.206078 
	C106.532188,53.799847 105.777664,51.393612 105.332260,48.918022 
	C106.439346,48.560257 107.237305,48.271847 108.299721,48.198357 
	C110.109146,50.865128 111.654114,53.316978 113.199081,55.768829 
	C113.632393,55.840755 114.065712,55.912682 114.499023,55.984604 
	C114.841393,53.092113 115.493423,50.192936 115.431183,47.309174 
	C115.378456,44.865547 114.499893,42.439739 114.239357,40.100090 
	C115.336929,40.127064 116.181915,40.059990 117.475471,39.940552 
	C119.717468,39.605576 121.510887,39.322968 123.463264,39.245247 
	C124.168251,41.021217 123.399033,43.361591 126.116699,44.049442 
	C127.038239,46.873405 127.793961,49.394722 128.947418,51.718628 
	C129.200333,52.228195 130.869064,52.035034 132.235748,52.152321 
	C134.300201,52.732746 136.014694,53.326340 137.851410,54.073776 
	C137.973648,54.227619 138.044373,54.614189 137.940216,54.862679 
	C137.836075,57.086330 137.836075,59.061493 137.836075,61.074589 
	C136.965759,61.219158 135.820328,61.409424 134.980209,61.548977 
	C135.422760,64.237747 135.640854,66.579941 136.234436,68.822762 
	C136.652328,70.401825 136.595825,73.467712 140.098206,70.990028 
	C140.986252,70.996773 141.493118,70.998390 142.000000,71.000000 
z"/>
<path fill="#171521" opacity="1.000000" stroke="none" 
	d="
M105.995697,119.004105 
	C107.419365,119.004745 108.843025,119.005386 110.653976,119.398743 
	C110.012672,124.528389 108.984093,129.265320 107.872200,134.269089 
	C107.727295,134.903183 107.665710,135.270432 107.362381,135.858917 
	C106.929848,137.122009 106.739059,138.163879 106.532089,139.653290 
	C106.343933,140.733871 106.171967,141.366943 106.000000,142.000000 
	C91.312439,142.000000 76.624878,142.000000 61.294411,141.675598 
	C56.817940,136.970520 52.984379,132.589828 49.431496,127.927284 
	C50.725914,126.513390 51.739651,125.381348 53.161152,124.370956 
	C58.043709,124.323395 62.710991,122.351265 66.751678,126.215126 
	C67.301788,126.741150 69.000023,126.490074 69.958000,126.094055 
	C74.557274,124.192734 77.949547,117.786667 77.395607,112.566780 
	C73.432571,112.979996 69.472687,113.392876 65.512794,113.805763 
	C65.461441,113.344093 65.410080,112.882423 65.358727,112.420746 
	C67.970856,111.629883 70.582977,110.839012 73.503311,109.980530 
	C74.849022,108.982941 75.886528,108.052963 77.131386,106.884323 
	C77.892715,105.764015 78.446693,104.882385 79.209106,103.752274 
	C80.931686,102.659492 82.445847,101.815193 84.288559,101.022430 
	C85.742813,101.715355 86.868507,102.356758 87.992683,103.332321 
	C87.990433,104.112038 87.989685,104.557579 87.648605,105.113525 
	C83.538399,106.687767 84.092087,109.984726 84.056007,113.346176 
	C85.061897,116.573486 86.810661,118.056137 90.406013,116.994080 
	C93.028931,117.530342 95.212471,118.266647 97.452820,118.543900 
	C100.276184,118.893303 103.145950,118.867836 105.995697,119.004105 
z"/>
<path fill="#000000" opacity="1.000000" stroke="none" 
	d="
M93.000000,1.000000 
	C109.264320,1.000000 125.528633,1.000000 142.000000,1.000000 
	C142.000000,19.020367 142.000000,37.041523 141.608063,55.459496 
	C140.484680,55.512844 139.753235,55.169384 138.893555,54.850185 
	C138.503357,54.846355 138.263046,54.759602 138.044373,54.614189 
	C138.044373,54.614189 137.973648,54.227619 137.651031,53.761360 
	C135.212067,48.174126 133.095703,43.053143 130.933075,37.757648 
	C130.886810,37.583138 130.752228,37.248074 130.829620,36.885036 
	C130.280762,36.033470 129.654526,35.544941 129.026535,35.022209 
	C129.024780,34.988007 128.956711,34.995457 128.961899,34.639297 
	C128.041519,32.812981 127.115959,31.342829 126.040367,29.566456 
	C122.877930,24.719902 119.865524,20.179569 116.885193,15.372879 
	C116.886436,14.751878 116.855591,14.397233 116.784180,13.693680 
	C115.999451,12.580760 115.348663,11.685316 114.493385,11.077725 
	C112.064369,9.352150 109.551857,7.744114 106.729271,5.884114 
	C102.230110,4.767999 98.073898,3.857573 93.725334,2.947834 
	C93.532990,2.948521 93.154259,3.015975 92.984169,2.631793 
	C92.876053,1.831741 92.938026,1.415871 93.000000,1.000000 
z"/>
<path fill="#191724" opacity="1.000000" stroke="none" 
	d="
M1.000000,105.000000 
	C1.000000,103.285645 1.000000,101.571281 1.332251,99.332535 
	C2.562700,97.109253 4.379327,95.276688 4.155845,93.741028 
	C3.766307,91.064285 2.119699,88.570480 1.000000,86.000000 
	C1.000000,65.979103 1.000000,45.958210 1.261795,25.485363 
	C1.697629,25.016237 1.871669,24.999063 2.392914,25.126949 
	C3.522569,26.507450 4.396058,27.695383 5.070282,28.987305 
	C7.038742,32.759201 8.927650,36.572617 10.909617,40.616905 
	C11.277901,41.264545 11.584308,41.665035 11.907337,42.379646 
	C12.270030,43.186306 12.616100,43.678848 13.055374,44.440117 
	C14.100955,47.466679 15.053332,50.224514 15.575998,52.981686 
	C9.407839,53.274128 7.745572,54.777843 9.347710,59.776585 
	C10.275769,62.672169 12.973361,65.049866 15.066181,67.496780 
	C15.822866,68.381485 17.137903,68.788635 18.229851,69.432381 
	C17.794819,70.083893 17.665998,70.515366 17.434244,70.580482 
	C16.646883,70.801704 15.823163,70.893539 14.744200,70.870865 
	C13.421295,70.709160 12.367520,70.711372 11.313746,70.713577 
	C11.854461,71.140167 12.395175,71.566757 12.986570,72.351288 
	C14.504207,79.080101 19.768383,80.540207 25.051453,82.351151 
	C25.365667,84.102455 25.668612,85.493050 25.868279,87.171486 
	C25.785246,88.323196 25.805489,89.187073 25.937490,90.381668 
	C26.266924,91.373764 26.484596,92.035149 26.294868,92.715546 
	C24.128895,92.024155 22.395607,91.240822 20.605885,90.620239 
	C17.847275,89.663673 14.798198,88.085426 13.692717,93.011337 
	C12.895685,93.711655 12.377512,94.284325 11.929564,94.923126 
	C11.999791,94.989258 11.857317,94.862587 11.590472,94.987976 
	C10.961830,95.781143 10.600032,96.448914 10.103846,97.256378 
	C9.969457,97.396065 9.769391,97.728142 9.449448,97.836784 
	C8.488223,99.340927 7.846941,100.736435 7.172582,102.129822 
	C7.139504,102.127708 7.117920,102.190384 6.820356,102.228592 
	C5.976774,102.815376 5.430756,103.363960 4.570588,104.075455 
	C3.170958,104.492241 2.085479,104.746117 1.000000,105.000000 
z"/>
<path fill="#868A9D" opacity="1.000000" stroke="none" 
	d="
M0.999999,133.000000 
	C1.000000,130.957687 1.000000,128.915359 1.353243,126.403870 
	C8.837369,120.640350 15.968251,115.346008 23.347988,109.868378 
	C23.319019,108.190414 23.314434,106.573967 22.712662,105.223663 
	C20.830233,100.999680 18.722395,96.876137 16.970057,92.455193 
	C18.330620,92.554695 19.764170,92.592430 20.454554,93.327843 
	C23.018562,96.059044 25.528730,98.883965 27.698959,101.930267 
	C30.181784,105.415352 32.280846,109.173836 34.275818,112.975121 
	C32.248905,114.746010 30.492825,116.355316 28.430309,118.096985 
	C19.082581,123.152908 10.041289,128.076447 0.999999,133.000000 
z"/>
<path fill="#000000" opacity="1.000000" stroke="none" 
	d="
M139.861557,105.079132 
	C139.567398,96.218994 139.139771,87.359573 139.092484,78.498123 
	C139.083099,76.740692 140.533127,74.975479 141.655075,73.106926 
	C142.000000,96.000008 142.000000,119.000015 142.000000,142.000000 
	C139.969559,142.000000 137.982681,142.000000 135.478546,141.582611 
	C134.619110,138.085022 134.276932,135.004852 133.962219,131.499359 
	C134.107758,126.483696 134.999603,122.634727 138.105469,118.534897 
	C140.477798,115.403358 139.402985,109.660431 139.861557,105.079132 
z"/>
<path fill="#898DA1" opacity="1.000000" stroke="none" 
	d="
M106.468399,142.000000 
	C106.171967,141.366943 106.343933,140.733871 106.778244,139.436661 
	C107.228432,137.727570 107.416275,136.682617 107.604126,135.637680 
	C107.665710,135.270432 107.727295,134.903183 108.130844,134.050903 
	C110.758995,130.826767 113.045174,128.087646 116.209717,124.296143 
	C116.209717,128.026978 116.209717,130.515686 116.209717,133.004379 
	C116.483208,132.998489 116.756699,132.992599 117.030197,132.986710 
	C118.397995,129.385574 119.765793,125.784431 121.322189,122.420700 
	C121.811943,123.192856 122.113083,123.727592 122.405777,124.697571 
	C122.383720,128.323746 122.370125,131.514679 122.384254,135.006851 
	C122.911491,135.890213 123.410995,136.472321 124.160599,137.221375 
	C124.913635,137.725616 125.416573,138.062912 125.920631,138.765411 
	C125.947838,140.087067 125.973915,141.043533 126.000000,142.000000 
	C119.645599,142.000000 113.291206,142.000000 106.468399,142.000000 
z"/>
<path fill="#54576B" opacity="1.000000" stroke="none" 
	d="
M0.999999,133.416656 
	C10.041289,128.076447 19.082581,123.152908 28.632736,118.365593 
	C29.524059,119.302177 29.906519,120.102531 30.142750,121.196640 
	C29.606934,124.852936 29.436167,128.363358 24.856541,128.648987 
	C22.964769,128.619720 20.957672,128.487946 19.416000,129.271698 
	C16.839111,130.581726 14.559563,132.476654 11.870350,133.942825 
	C8.057232,135.173523 4.528615,136.586761 0.999999,138.000000 
	C1.000000,136.611115 1.000000,135.222214 0.999999,133.416656 
z"/>
<path fill="#818598" opacity="1.000000" stroke="none" 
	d="
M57.000000,142.000000 
	C54.299950,142.000000 51.599899,142.000000 48.807121,141.756912 
	C48.073006,140.418747 47.431614,139.323669 46.790226,138.228592 
	C46.272987,138.492889 45.755745,138.757172 45.238506,139.021454 
	C45.159004,140.014313 45.079502,141.007156 45.000000,142.000000 
	C43.285580,142.000000 41.571156,142.000000 39.679020,141.641968 
	C39.011848,138.515808 38.522396,135.747681 38.019112,132.992035 
	C38.005283,133.004532 37.979977,133.031891 38.258507,133.191132 
	C40.005520,134.340988 41.474010,135.331573 42.942497,136.322159 
	C43.157078,136.042526 43.371655,135.762894 43.586235,135.483261 
	C42.382736,133.330688 41.179237,131.178131 40.368744,129.095001 
	C50.555523,130.776703 55.636635,134.793076 57.000000,142.000000 
z"/>
<path fill="#75788D" opacity="1.000000" stroke="none" 
	d="
M126.428452,142.000000 
	C125.973915,141.043533 125.947838,140.087067 126.165344,138.427567 
	C126.703308,128.323074 126.997673,118.921631 127.292038,109.520180 
	C128.246338,107.873146 129.200623,106.226120 130.461151,104.926224 
	C130.928864,113.204178 131.036514,121.136604 131.273376,129.065170 
	C131.402283,133.380173 131.750626,137.688599 132.000000,142.000000 
	C130.285645,142.000000 128.571274,142.000000 126.428452,142.000000 
z"/>
<path fill="#2E2D3E" opacity="1.000000" stroke="none" 
	d="
M24.950417,128.957993 
	C29.436167,128.363358 29.606934,124.852936 30.412457,121.275772 
	C31.380159,122.787827 31.931925,124.514488 32.481331,126.233780 
	C34.149548,125.205421 35.871449,124.143974 37.872910,123.327591 
	C38.609566,124.728432 39.066658,125.884216 39.365685,127.116730 
	C39.207619,127.193474 38.931705,127.411118 38.612442,127.434021 
	C36.715599,128.506577 35.138023,129.556229 33.495659,130.306534 
	C33.320175,129.614334 33.209476,129.221481 32.988754,128.668396 
	C32.543224,128.583801 32.207722,128.659454 31.604624,128.941742 
	C27.558016,133.432251 23.779007,137.716125 20.000000,142.000000 
	C18.611111,142.000000 17.222221,142.000000 15.022488,141.823853 
	C17.791233,137.417786 21.370825,133.187897 24.950417,128.957993 
z"/>
<path fill="#878B9F" opacity="1.000000" stroke="none" 
	d="
M9.769391,97.728142 
	C9.769391,97.728142 9.969457,97.396065 10.377576,97.139465 
	C11.142901,96.209442 11.500109,95.536018 11.857317,94.862587 
	C11.857317,94.862587 11.999791,94.989258 12.294386,94.987167 
	C17.782015,98.631622 18.707745,102.853752 14.531818,105.627594 
	C9.769836,107.459579 5.384919,109.229790 1.000000,111.000000 
	C1.000000,109.285606 1.000000,107.571205 1.000000,105.428406 
	C2.085479,104.746117 3.170958,104.492241 4.869039,104.031784 
	C6.027066,103.280266 6.572493,102.735329 7.117919,102.190384 
	C7.117920,102.190384 7.139504,102.127708 7.504129,102.025864 
	C8.502299,100.525391 9.135845,99.126762 9.769391,97.728142 
z"/>
<path fill="#878B9E" opacity="1.000000" stroke="none" 
	d="
M24.856539,128.648987 
	C21.370825,133.187897 17.791233,137.417786 14.605821,141.823853 
	C10.333334,141.666656 5.666667,141.333328 1.363333,140.618057 
	C5.202728,138.199203 8.678790,136.162277 12.154852,134.125366 
	C14.559563,132.476654 16.839111,130.581726 19.416000,129.271698 
	C20.957672,128.487946 22.964769,128.619720 24.856539,128.648987 
z"/>
<path fill="#888B9E" opacity="1.000000" stroke="none" 
	d="
M33.098778,128.828629 
	C33.209476,129.221481 33.320175,129.614334 33.363815,130.748199 
	C33.531174,134.992813 33.765587,138.496414 34.000000,142.000000 
	C29.643101,142.000000 25.286201,142.000000 20.464649,142.000000 
	C23.779007,137.716125 27.558016,133.432251 31.910469,128.976898 
	C32.688869,128.813171 32.893826,128.820908 33.098778,128.828629 
z"/>
<path fill="#747282" opacity="1.000000" stroke="none" 
	d="
M92.531342,1.000000 
	C92.938026,1.415871 92.876053,1.831741 92.574684,2.666700 
	C91.240685,3.122684 90.146080,3.159580 88.583878,3.127830 
	C73.068428,3.090918 58.020580,3.122653 42.606102,3.093695 
	C41.497238,3.022798 40.755001,3.012593 39.760399,3.000301 
	C39.339783,2.998054 39.171532,2.997894 39.156090,2.596030 
	C39.205936,1.796218 39.102966,1.398109 39.000000,1.000000 
	C56.687561,1.000000 74.375122,1.000000 92.531342,1.000000 
z"/>
<path fill="#181D2B" opacity="1.000000" stroke="none" 
	d="
M132.375000,142.000000 
	C131.750626,137.688599 131.402283,133.380173 131.273376,129.065170 
	C131.036514,121.136604 130.928864,113.204178 130.773315,104.852615 
	C130.779266,102.563599 130.779266,100.695312 130.779266,98.827034 
	C131.611343,98.803787 132.443436,98.780548 133.275513,98.757309 
	C133.275513,100.722069 133.275513,102.686829 133.307281,105.425797 
	C133.507797,110.142464 133.676544,114.084938 133.678497,118.396515 
	C133.652725,123.151978 133.793732,127.538322 133.934753,131.924667 
	C134.276932,135.004852 134.619110,138.085022 134.980652,141.582611 
	C134.250000,142.000000 133.500000,142.000000 132.375000,142.000000 
z"/>
<path fill="#60637A" opacity="1.000000" stroke="none" 
	d="
M23.099133,110.051666 
	C15.968251,115.346008 8.837369,120.640350 1.353243,125.967346 
	C1.000000,124.933327 1.000000,123.866661 1.361495,122.409256 
	C6.224061,118.341263 10.725131,114.664001 15.580762,110.982231 
	C18.323259,110.669037 20.711195,110.360352 23.099133,110.051666 
z"/>
<path fill="#585A6F" opacity="1.000000" stroke="none" 
	d="
M34.416664,142.000000 
	C33.765587,138.496414 33.531174,134.992813 33.428604,131.047546 
	C35.138023,129.556229 36.715599,128.506577 38.718132,127.643440 
	C39.420639,128.228485 39.698189,128.627029 39.975739,129.025558 
	C41.179237,131.178131 42.382736,133.330688 43.586235,135.483261 
	C43.371655,135.762894 43.157078,136.042526 42.942497,136.322159 
	C41.474010,135.331573 40.005520,134.340988 38.249203,133.159241 
	C37.961372,132.968109 38.032940,132.979553 38.032940,132.979553 
	C38.522396,135.747681 39.011848,138.515808 39.250652,141.641968 
	C37.611111,142.000000 36.222221,142.000000 34.416664,142.000000 
z"/>
<path fill="#000000" opacity="1.000000" stroke="none" 
	d="
M38.531342,1.000000 
	C39.102966,1.398109 39.205936,1.796218 39.150818,2.598637 
	C38.992729,3.002947 38.983349,3.023682 38.781761,3.050010 
	C38.580177,3.076338 38.178078,3.140858 37.726448,3.104796 
	C35.167660,3.103999 33.060501,3.139264 30.547523,3.144350 
	C28.076952,3.386157 26.012197,3.658142 23.725554,4.005928 
	C23.503662,4.081728 23.062813,4.241657 22.653301,4.165211 
	C18.875673,4.129409 15.507559,4.170053 11.790443,4.029295 
	C9.642705,3.613164 7.843967,3.378437 5.626067,3.106211 
	C3.804603,3.045807 2.402302,3.022904 1.000000,3.000000 
	C0.392079,-0.006875 2.672403,1.037717 3.944794,1.031644 
	C15.317216,0.977357 26.690002,1.000000 38.531342,1.000000 
z"/>
<path fill="#797071" opacity="1.000000" stroke="none" 
	d="
M137.940216,54.862679 
	C138.263046,54.759602 138.503357,54.846355 138.777649,55.143345 
	C139.061523,56.616882 139.333069,57.821526 139.510956,59.415161 
	C139.514618,60.994053 139.611954,62.183949 139.709290,63.373848 
	C140.472855,63.249233 141.236435,63.124619 142.000000,63.000000 
	C142.000000,64.388893 142.000000,65.777779 141.714783,67.227333 
	C140.858734,68.520294 140.287888,69.752594 139.717041,70.984894 
	C136.595825,73.467712 136.652328,70.401825 136.234436,68.822762 
	C135.640854,66.579941 135.422760,64.237747 134.980209,61.548977 
	C135.820328,61.409424 136.965759,61.219158 137.836075,61.074589 
	C137.836075,59.061493 137.836075,57.086330 137.940216,54.862679 
z"/>
<path fill="#56535D" opacity="1.000000" stroke="none" 
	d="
M40.368744,129.095001 
	C39.698189,128.627029 39.420639,128.228485 39.037399,127.620529 
	C38.931705,127.411118 39.207619,127.193474 39.704647,127.105865 
	C42.280586,126.915703 44.359493,126.813148 46.664825,126.841263 
	C47.644432,127.384331 48.397625,127.796730 49.150818,128.209137 
	C52.984379,132.589828 56.817940,136.970520 60.825752,141.675598 
	C59.933331,142.000000 58.866661,142.000000 57.399994,142.000000 
	C55.636635,134.793076 50.555523,130.776703 40.368744,129.095001 
z"/>
<path fill="#878BA0" opacity="1.000000" stroke="none" 
	d="
M15.226200,110.986740 
	C10.725131,114.664001 6.224061,118.341263 1.361495,122.009262 
	C1.000000,120.285645 1.000000,118.571281 1.370458,116.424316 
	C6.166147,113.584290 10.591378,111.176865 15.135309,108.971397 
	C15.244739,109.777824 15.235468,110.382278 15.226200,110.986740 
z"/>
<path fill="#5F6279" opacity="1.000000" stroke="none" 
	d="
M15.016609,108.769432 
	C10.591378,111.176865 6.166147,113.584290 1.370458,115.995857 
	C1.000000,114.611107 1.000000,113.222221 1.000000,111.416664 
	C5.384919,109.229790 9.769836,107.459579 14.547401,106.035042 
	C14.965570,107.176956 14.991090,107.973190 15.016609,108.769432 
z"/>
<path fill="#2E2A3F" opacity="1.000000" stroke="none" 
	d="
M1.000000,21.000000 
	C1.000000,18.629442 1.000000,16.258884 1.395036,13.469600 
	C3.866816,13.373315 5.943560,13.695758 8.304467,14.029236 
	C8.778174,14.048835 8.967719,14.057399 9.192265,14.368415 
	C9.204190,15.075493 9.181113,15.480119 9.005386,16.121775 
	C9.197008,17.243572 9.541280,18.128342 9.980162,19.325901 
	C10.130414,20.069939 10.186057,20.501183 9.776163,20.944111 
	C6.540417,20.970530 3.770208,20.985266 1.000000,21.000000 
z"/>
<path fill="#1E1E34" opacity="1.000000" stroke="none" 
	d="
M8.020304,14.018200 
	C5.943560,13.695758 3.866816,13.373315 1.395036,13.025436 
	C1.000000,9.969407 1.000000,6.938814 1.000000,3.454110 
	C2.402302,3.022904 3.804603,3.045807 5.537852,3.438780 
	C5.060097,6.400180 5.010664,8.728798 8.010166,10.403208 
	C8.012553,11.875712 8.016428,12.946957 8.020304,14.018200 
z"/>
<path fill="#372C33" opacity="1.000000" stroke="none" 
	d="
M1.000000,21.399994 
	C3.770208,20.985266 6.540417,20.970530 9.948351,21.255871 
	C10.952229,22.683310 11.318379,23.810671 11.225037,24.953484 
	C10.153677,24.989393 9.541811,25.009851 8.597802,24.964842 
	C7.195676,24.640129 6.125693,24.380882 4.721161,24.066683 
	C3.606311,24.335117 2.826010,24.658503 2.045708,24.981888 
	C1.871669,24.999063 1.697629,25.016237 1.261795,25.016706 
	C1.000000,23.933329 1.000000,22.866659 1.000000,21.399994 
z"/>
<path fill="#26253D" opacity="1.000000" stroke="none" 
	d="
M1.000000,86.463181 
	C2.119699,88.570480 3.766307,91.064285 4.155845,93.741028 
	C4.379327,95.276688 2.562700,97.109253 1.332251,98.904076 
	C1.000000,94.975456 1.000000,90.950912 1.000000,86.463181 
z"/>
<path fill="#3D3F51" opacity="1.000000" stroke="none" 
	d="
M11.870351,133.942825 
	C8.678790,136.162277 5.202728,138.199203 1.363333,140.118057 
	C1.000000,139.555557 1.000000,139.111099 0.999999,138.333328 
	C4.528615,136.586761 8.057232,135.173523 11.870351,133.942825 
z"/>
<path fill="#252335" opacity="1.000000" stroke="none" 
	d="
M139.604614,59.026161 
	C139.333069,57.821526 139.061523,56.616882 138.905899,55.119080 
	C139.753235,55.169384 140.484680,55.512844 141.608063,55.928154 
	C142.000000,56.750000 142.000000,57.500000 141.600845,58.603775 
	C140.669327,58.980419 140.136978,59.003292 139.604614,59.026161 
z"/>
<path fill="#000000" opacity="1.000000" stroke="none" 
	d="
M139.510956,59.415161 
	C140.136978,59.003292 140.669327,58.980419 141.600845,58.978775 
	C142.000000,60.066669 142.000000,61.133339 142.000000,62.600006 
	C141.236435,63.124619 140.472855,63.249233 139.709290,63.373848 
	C139.611954,62.183949 139.514618,60.994053 139.510956,59.415161 
z"/>
<path fill="#000000" opacity="1.000000" stroke="none" 
	d="
M45.375000,142.000000 
	C45.079502,141.007156 45.159004,140.014313 45.238506,139.021454 
	C45.755745,138.757172 46.272987,138.492889 46.790226,138.228592 
	C47.431614,139.323669 48.073006,140.418747 48.357197,141.756912 
	C47.250000,142.000000 46.500000,142.000000 45.375000,142.000000 
z"/>
<path fill="#000000" opacity="1.000000" stroke="none" 
	d="
M140.098206,70.990028 
	C140.287888,69.752594 140.858734,68.520294 141.714783,67.643997 
	C142.000000,68.750000 142.000000,69.500000 142.000000,70.625000 
	C141.493118,70.998390 140.986252,70.996773 140.098206,70.990028 
z"/>
<path fill="#2A2845" opacity="1.000000" stroke="none" 
	d="
M42.972733,3.154387 
	C58.020580,3.122653 73.068428,3.090918 88.622246,3.471389 
	C91.080978,5.576920 93.033737,7.270245 95.303589,9.111938 
	C97.583748,10.846762 99.546829,12.433215 101.766052,14.147161 
	C102.442825,14.649524 102.863441,15.024391 103.126938,15.779213 
	C102.648849,17.750620 102.327896,19.342072 101.679024,20.808029 
	C100.479820,20.212309 99.652458,19.469915 98.729324,19.320948 
	C95.464729,18.794142 92.167374,18.470356 88.882439,18.069609 
	C89.883369,21.200447 90.575668,24.474119 91.945557,27.434204 
	C95.455482,35.018528 99.266663,42.463428 102.957382,49.964077 
	C98.545380,50.305031 94.135551,50.678093 89.720619,50.975601 
	C86.798981,51.172478 84.924026,50.075256 85.014099,45.938362 
	C84.674263,39.704861 84.342850,34.343124 83.924629,28.637575 
	C82.373917,23.822702 79.904472,20.271503 74.867340,18.860027 
	C75.412994,23.397606 77.364189,27.116777 80.980888,30.393322 
	C81.991608,35.851555 82.952766,40.919147 83.913925,45.986744 
	C80.777908,53.150787 74.340034,56.994831 68.466278,61.424709 
	C67.297745,62.305992 66.136070,63.354340 65.363312,64.574051 
	C62.576328,68.972969 58.639668,70.100052 53.279755,68.638321 
	C52.474163,65.844429 52.191368,63.452251 51.848289,60.754013 
	C51.187023,59.635689 50.586044,58.823421 49.822174,57.862236 
	C49.449512,57.505970 49.257618,57.283218 49.444313,56.948860 
	C51.719315,56.292347 53.617271,55.666573 55.551003,55.184185 
	C61.015358,53.821037 64.398903,50.322327 66.393829,44.916557 
	C67.787727,43.858665 68.913002,42.955284 70.326492,41.839348 
	C73.538696,38.938751 74.188103,35.812572 71.066048,33.137871 
	C65.953186,28.757624 55.816799,30.948975 51.524284,36.943024 
	C49.461693,36.978134 47.849350,36.940155 46.246689,37.047134 
	C42.606472,37.290119 40.660572,35.947002 41.537560,31.837967 
	C41.805729,30.285473 41.858799,28.909893 41.900452,27.182209 
	C42.595100,24.846432 43.301178,22.862762 44.403801,20.904205 
	C47.094433,20.584316 49.388519,20.239315 52.034836,19.788677 
	C53.872128,18.982935 56.034958,18.668764 56.699623,17.501507 
	C58.038452,15.150287 59.251076,12.283131 59.060825,9.737571 
	C58.990864,8.801531 54.854050,7.952427 52.488953,7.487566 
	C51.103886,7.215331 49.557442,7.807546 48.078430,7.961195 
	C44.535980,8.329207 42.724632,6.827805 42.972733,3.154387 
z"/>
<path fill="#232133" opacity="1.000000" stroke="none" 
	d="
M83.960007,100.970886 
	C82.445847,101.815193 80.931686,102.659492 78.956825,103.740204 
	C78.327888,103.969765 78.159660,103.962914 77.971802,103.599091 
	C76.300140,101.493546 74.648109,99.744972 73.253082,97.775894 
	C78.673492,93.703590 83.836899,89.851791 89.361084,86.111237 
	C96.774742,89.174751 99.275528,88.721840 102.001923,83.998474 
	C103.295502,87.276550 104.448402,90.620857 105.946365,93.802711 
	C106.621201,95.236145 107.984276,96.345566 109.035080,97.601997 
	C110.033653,96.311531 111.209267,95.119881 111.995590,93.710960 
	C113.895020,90.307617 115.612679,86.802818 117.678291,83.577240 
	C117.622124,86.543617 117.291283,89.271683 116.753647,92.087936 
	C116.360649,92.781883 116.174431,93.387634 115.887993,94.333893 
	C113.911324,100.540047 109.943047,104.750969 105.374458,108.704346 
	C102.165077,111.481544 101.278488,110.546959 101.052826,106.638504 
	C102.057816,102.645164 103.218773,99.043594 103.712616,95.352768 
	C103.860306,94.248970 102.143135,92.895645 101.280365,91.656647 
	C100.519646,92.771027 99.758926,93.885399 98.668396,95.063339 
	C97.558266,96.078026 96.777931,97.029144 95.739578,98.210922 
	C93.678589,101.421875 92.611984,105.243050 87.988937,105.003128 
	C87.989685,104.557579 87.990433,104.112038 88.170982,102.995216 
	C88.738472,99.478233 89.126152,96.632523 89.513832,93.786812 
	C88.808510,93.607758 88.103188,93.428703 87.397873,93.249641 
	C86.251915,95.823387 85.105957,98.397141 83.960007,100.970886 
z"/>
<path fill="#201D2E" opacity="1.000000" stroke="none" 
	d="
M89.000305,86.000000 
	C83.836899,89.851791 78.673492,93.703590 72.869141,97.864433 
	C65.334969,100.417336 58.575993,100.167130 51.997856,96.557014 
	C51.615273,96.899208 51.232689,97.241394 50.850105,97.583580 
	C51.902298,99.712318 52.954487,101.841064 53.795624,104.075851 
	C53.718212,105.282913 53.851849,106.383926 53.616470,107.526169 
	C50.026886,106.438690 46.806320,105.309967 43.869560,104.036469 
	C44.750164,103.190826 45.346962,102.489960 45.943764,101.789108 
	C43.937347,101.522690 41.930923,101.256279 38.964485,100.862389 
	C40.501480,98.859787 41.743149,97.286560 42.936623,95.677567 
	C45.329990,92.450928 47.697018,89.204750 50.441856,85.973633 
	C51.542652,85.995430 52.276508,86.010254 53.036133,86.385391 
	C53.896736,90.361710 55.486191,91.004013 58.320221,88.109764 
	C59.426865,89.478989 60.214462,90.737556 60.682106,92.167953 
	C57.332310,92.171371 54.302460,92.002968 51.215431,91.831383 
	C57.002388,100.074249 80.619919,95.921333 88.000473,80.996811 
	C88.241493,81.200432 88.470879,81.416420 88.845612,82.220825 
	C89.001831,83.864586 89.001068,84.932289 89.000305,86.000000 
z"/>
<path fill="#1B1929" opacity="1.000000" stroke="none" 
	d="
M116.960449,91.999756 
	C117.291283,89.271683 117.622124,86.543617 117.967392,83.405457 
	C118.952492,83.173363 120.650307,83.136986 120.776199,83.564018 
	C121.612869,86.402031 122.028023,89.361237 122.770699,92.231758 
	C123.017220,93.184601 123.824211,93.992439 124.529724,95.235123 
	C123.364868,96.764900 121.788368,97.739265 120.779297,99.126404 
	C118.703285,101.980240 116.930649,105.054779 115.033165,108.038490 
	C113.778450,109.981453 112.705925,112.080048 111.217056,113.822998 
	C109.767181,115.520279 107.891151,116.853539 106.098969,118.675369 
	C103.145950,118.867836 100.276184,118.893303 97.452820,118.543900 
	C95.212471,118.266647 93.028931,117.530342 90.596046,116.699471 
	C93.577332,115.990456 96.782730,115.579834 100.638504,115.085907 
	C99.127014,113.391609 98.063515,112.199478 97.148315,110.713516 
	C98.515511,109.278473 99.734398,108.137276 100.953285,106.996078 
	C101.278488,110.546959 102.165077,111.481544 105.374458,108.704346 
	C109.943047,104.750969 113.911324,100.540047 116.052414,94.107353 
	C116.531517,93.026787 116.745987,92.513275 116.960449,91.999756 
z"/>
<path fill="#1F1D33" opacity="1.000000" stroke="none" 
	d="
M103.105576,50.295204 
	C99.266663,42.463428 95.455482,35.018528 91.945557,27.434204 
	C90.575668,24.474119 89.883369,21.200447 88.882439,18.069609 
	C92.167374,18.470356 95.464729,18.794142 98.729324,19.320948 
	C99.652458,19.469915 100.479820,20.212309 101.982773,20.973057 
	C106.234062,23.827209 109.783943,26.497971 113.498390,28.915937 
	C115.882805,30.468103 118.509590,31.647953 120.866913,33.284966 
	C121.410034,34.687675 122.113960,35.800110 123.027580,37.227814 
	C123.259621,38.042171 123.281967,38.541264 123.304314,39.040356 
	C121.510887,39.322968 119.717468,39.605576 117.465683,39.548157 
	C116.218163,33.138309 109.275490,26.102985 103.741348,25.858877 
	C102.677681,25.396515 101.850113,25.079630 100.813614,24.682743 
	C100.813614,26.134695 100.813614,27.109314 100.813614,28.310228 
	C99.355293,27.333935 98.253143,26.596085 96.413597,25.364578 
	C97.158432,27.534731 97.580208,28.763636 97.893410,30.262417 
	C98.191330,31.724754 98.546371,32.937786 99.013268,34.106113 
	C100.998489,39.073753 103.016869,44.028149 105.023140,48.987381 
	C105.777664,51.393612 106.532188,53.799847 107.286705,56.206078 
	C106.731819,56.387100 106.176926,56.568119 105.622032,56.749142 
	C104.832619,54.708202 104.043198,52.667267 103.105576,50.295204 
M93.206482,22.946077 
	C93.094383,23.023359 92.982285,23.100641 92.870178,23.177921 
	C92.979286,23.156601 93.088402,23.135283 93.206482,22.946077 
z"/>
<path fill="#191623" opacity="1.000000" stroke="none" 
	d="
M53.010368,86.025070 
	C52.276508,86.010254 51.542652,85.995430 50.411003,85.531174 
	C50.003052,81.054031 49.992897,77.026321 50.006187,72.597351 
	C50.031281,71.125626 50.032925,70.055176 50.158386,68.805710 
	C49.975273,68.065590 49.668346,67.504463 49.238152,66.565712 
	C47.549210,61.917057 45.983528,57.646034 44.252087,52.922829 
	C45.014652,52.277664 46.112148,51.349133 47.373650,50.579056 
	C47.537655,50.737514 47.923336,50.980988 47.926369,51.159920 
	C47.952316,51.577278 47.985004,51.814354 48.040474,52.418087 
	C48.396858,54.205746 48.740234,55.625404 49.083607,57.045059 
	C49.257618,57.283218 49.449512,57.505970 49.873554,58.177612 
	C50.694740,59.447960 51.301655,60.254017 51.908573,61.060074 
	C52.191368,63.452251 52.474163,65.844429 52.914772,68.596474 
	C53.105980,72.148293 52.835960,75.674599 56.859852,76.697304 
	C61.054096,77.763306 64.444389,76.502998 65.759399,71.378853 
	C66.234108,71.562187 66.708809,71.745514 67.183517,71.928841 
	C67.458549,74.009148 67.733582,76.089462 67.631004,78.600632 
	C65.334778,80.453064 63.451786,81.926437 61.485699,83.279022 
	C60.037926,84.275040 58.481544,85.113174 56.577515,86.018906 
	C55.124432,86.019127 54.067402,86.022102 53.010368,86.025070 
z"/>
<path fill="#1C1A2B" opacity="1.000000" stroke="none" 
	d="
M98.001984,29.992542 
	C97.580208,28.763636 97.158432,27.534731 96.413597,25.364578 
	C98.253143,26.596085 99.355293,27.333935 100.813614,28.310228 
	C100.813614,27.109314 100.813614,26.134695 100.813614,24.682743 
	C101.850113,25.079630 102.677681,25.396515 103.928642,26.137312 
	C107.563614,31.042833 110.775192,35.524441 113.986771,40.006046 
	C114.499893,42.439739 115.378456,44.865547 115.431183,47.309174 
	C115.493423,50.192936 114.841393,53.092113 114.499023,55.984604 
	C114.065712,55.912682 113.632393,55.840755 113.199081,55.768829 
	C111.654114,53.316978 110.109146,50.865128 108.255478,47.824657 
	C104.631851,41.488209 101.316917,35.740376 98.001984,29.992542 
z"/>
<path fill="#1B1928" opacity="1.000000" stroke="none" 
	d="
M56.973560,86.021660 
	C58.481544,85.113174 60.037926,84.275040 61.485699,83.279022 
	C63.451786,81.926437 65.334778,80.453064 67.626854,79.015594 
	C67.320572,80.984802 66.640846,82.969910 65.960976,84.955406 
	C70.774796,86.319351 73.246384,84.739212 78.178329,77.369644 
	C82.794212,78.842995 82.587677,73.868156 85.039886,72.988533 
	C85.041199,73.740051 85.042519,74.491562 84.996613,75.983475 
	C82.303131,85.354507 72.338051,91.709671 61.002056,91.996124 
	C60.214462,90.737556 59.426865,89.478989 58.154472,87.883347 
	C57.437637,87.038071 57.205601,86.529861 56.973560,86.021660 
z"/>
<path fill="#181725" opacity="1.000000" stroke="none" 
	d="
M115.331192,107.879601 
	C116.930649,105.054779 118.703285,101.980240 120.779297,99.126404 
	C121.788368,97.739265 123.364868,96.764900 124.840759,95.293701 
	C126.319481,91.076988 128.153732,87.255157 128.819855,83.239555 
	C129.480469,79.257195 128.964401,75.079636 128.964401,70.987686 
	C129.391891,70.738747 129.819366,70.489799 130.246857,70.240860 
	C131.445496,71.838882 133.401199,73.301506 133.715302,75.057732 
	C135.307480,83.960060 132.878342,91.969238 126.664268,98.481552 
	C123.373070,101.930702 119.331848,104.664162 115.331192,107.879601 
z"/>
<path fill="#222032" opacity="1.000000" stroke="none" 
	d="
M60.682106,92.167953 
	C72.338051,91.709671 82.303131,85.354507 84.998093,76.359238 
	C85.979088,77.437462 86.911369,78.880333 87.922066,80.660004 
	C80.619919,95.921333 57.002388,100.074249 51.215431,91.831383 
	C54.302460,92.002968 57.332310,92.171371 60.682106,92.167953 
z"/>
<path fill="#575870" opacity="1.000000" stroke="none" 
	d="
M127.071327,109.769669 
	C126.997673,118.921631 126.703308,128.323074 126.164223,138.062378 
	C125.416573,138.062912 124.913635,137.725616 124.078949,136.944183 
	C123.283638,135.901932 122.820076,135.303772 122.356522,134.705612 
	C122.370125,131.514679 122.383720,128.323746 122.610382,124.496399 
	C122.617920,122.613922 122.412399,121.367844 122.206879,120.121773 
	C123.754791,116.754234 125.302704,113.386703 127.071327,109.769669 
z"/>
<path fill="#5E6074" opacity="1.000000" stroke="none" 
	d="
M121.133591,122.183296 
	C119.765793,125.784431 118.397995,129.385574 117.030197,132.986710 
	C116.756699,132.992599 116.483208,132.998489 116.209717,133.004379 
	C116.209717,130.515686 116.209717,128.026978 116.209717,124.296143 
	C113.045174,128.087646 110.758995,130.826767 108.214157,133.784058 
	C108.984093,129.265320 110.012672,124.528389 111.081146,119.399338 
	C112.796959,117.872971 114.472862,116.738724 117.300735,114.824829 
	C117.036766,117.833298 116.883461,119.580490 116.692337,121.758636 
	C117.984535,121.622902 119.199738,121.495262 120.768021,121.534416 
	C121.121101,121.701218 121.133591,122.183296 121.133591,122.183296 
z"/>
<path fill="#998F8A" opacity="1.000000" stroke="none" 
	d="
M123.463264,39.245247 
	C123.281967,38.541264 123.259621,38.042171 123.105606,37.129623 
	C122.973930,36.716164 122.861931,36.260639 123.275467,36.206490 
	C125.058167,35.878975 126.427338,35.605610 128.001373,35.326698 
	C128.483551,35.275192 128.733704,35.166626 128.956711,34.995457 
	C128.956711,34.995457 129.024780,34.988007 129.070251,35.313423 
	C129.661240,36.175247 130.206726,36.711658 130.752228,37.248074 
	C130.752228,37.248074 130.886810,37.583138 130.943161,38.156223 
	C131.336334,40.818142 131.673172,42.906979 131.639114,44.898918 
	C130.512268,44.721092 129.756302,44.640152 128.874039,44.426422 
	C128.546265,44.144894 128.321045,44.056786 127.751633,43.926987 
	C126.985390,43.775055 126.539619,43.725445 126.093849,43.675835 
	C123.399033,43.361591 124.168251,41.021217 123.463264,39.245247 
z"/>
<path fill="#222D3D" opacity="1.000000" stroke="none" 
	d="
M133.962219,131.499359 
	C133.793732,127.538322 133.652725,123.151978 134.040649,118.225449 
	C135.071457,114.117905 135.573303,110.550560 136.075165,106.983215 
	C137.184830,106.486305 138.294495,105.989395 139.632858,105.285812 
	C139.402985,109.660431 140.477798,115.403358 138.105469,118.534897 
	C134.999603,122.634727 134.107758,126.483696 133.962219,131.499359 
z"/>
<path fill="#292640" opacity="1.000000" stroke="none" 
	d="
M114.239357,40.100090 
	C110.775192,35.524441 107.563614,31.042833 104.164749,26.282791 
	C109.275490,26.102985 116.218163,33.138309 117.017120,39.600525 
	C116.181915,40.059990 115.336929,40.127064 114.239357,40.100090 
z"/>
<path fill="#26243B" opacity="1.000000" stroke="none" 
	d="
M97.893410,30.262415 
	C101.316917,35.740376 104.631851,41.488209 107.991013,47.609741 
	C107.237305,48.271847 106.439346,48.560257 105.332260,48.918022 
	C103.016869,44.028149 100.998489,39.073753 99.013268,34.106113 
	C98.546371,32.937786 98.191330,31.724754 97.893410,30.262415 
z"/>
<path fill="#657175" opacity="1.000000" stroke="none" 
	d="
M132.009995,44.995811 
	C131.673172,42.906979 131.336334,40.818142 130.989441,38.330734 
	C133.095703,43.053143 135.212067,48.174126 137.528793,53.607521 
	C136.014694,53.326340 134.300201,52.732746 132.143768,51.844711 
	C131.804550,49.365448 131.907272,47.180630 132.009995,44.995811 
z"/>
<path fill="#222032" opacity="1.000000" stroke="none" 
	d="
M85.278732,72.853134 
	C82.587677,73.868156 82.794212,78.842995 78.330673,77.067261 
	C79.351204,74.673569 80.573677,72.253494 82.126114,70.067787 
	C82.598892,69.402168 83.980728,69.382225 84.946228,69.066574 
	C85.136673,70.283630 85.327126,71.500687 85.278732,72.853134 
z"/>
<path fill="#222031" opacity="1.000000" stroke="none" 
	d="
M89.361084,86.111237 
	C89.001068,84.932289 89.001831,83.864586 89.003922,82.396370 
	C92.701584,84.847252 96.764824,85.556335 101.601746,84.041626 
	C99.275528,88.721840 96.774742,89.174751 89.361084,86.111237 
z"/>
<path fill="#211D2A" opacity="1.000000" stroke="none" 
	d="
M131.639114,44.898918 
	C131.907272,47.180630 131.804550,49.365448 131.793808,51.857880 
	C130.869064,52.035034 129.200333,52.228195 128.947418,51.718628 
	C127.793961,49.394722 127.038239,46.873405 126.116699,44.049442 
	C126.539619,43.725445 126.985390,43.775055 127.815140,44.138103 
	C128.199127,44.451542 128.575714,44.683521 128.575714,44.683521 
	C128.575714,44.683521 129.000336,44.559212 129.000336,44.559212 
	C129.756302,44.640152 130.512268,44.721092 131.639114,44.898918 
z"/>
<path fill="#1D1A31" opacity="1.000000" stroke="none" 
	d="
M84.184143,45.991158 
	C82.952766,40.919147 81.991608,35.851555 81.300056,30.322815 
	C82.383583,29.568243 83.197510,29.274815 84.011429,28.981388 
	C84.342850,34.343124 84.674263,39.704861 85.000275,45.533844 
	C84.814697,45.999252 84.634529,45.997414 84.184143,45.991158 
z"/>
<path fill="#4A5564" opacity="1.000000" stroke="none" 
	d="
M135.931580,106.720535 
	C135.573303,110.550560 135.071457,114.117905 134.207443,117.856331 
	C133.676544,114.084938 133.507797,110.142464 133.335175,105.815628 
	C134.150223,105.773460 134.969116,106.115662 135.931580,106.720535 
z"/>
<path fill="#75788D" opacity="1.000000" stroke="none" 
	d="
M121.322189,122.420700 
	C121.133591,122.183296 121.121101,121.701218 121.105438,121.460663 
	C121.337822,120.975914 121.585861,120.731735 122.020393,120.304657 
	C122.412399,121.367844 122.617920,122.613922 122.618835,124.061165 
	C122.113083,123.727592 121.811943,123.192856 121.322189,122.420700 
z"/>
<path fill="#72635C" opacity="1.000000" stroke="none" 
	d="
M43.585754,104.181244 
	C46.806320,105.309967 50.026886,106.438690 54.016083,107.685753 
	C59.823738,107.992332 64.862762,108.180573 70.253754,108.493706 
	C71.468849,109.095123 72.331978,109.571632 73.195107,110.048149 
	C70.582977,110.839012 67.970856,111.629883 65.358727,112.420746 
	C65.410080,112.882423 65.461441,113.344093 65.512794,113.805763 
	C69.472687,113.392876 73.432571,112.979996 77.395607,112.566780 
	C77.949547,117.786667 74.557274,124.192734 69.958000,126.094055 
	C69.000023,126.490074 67.301788,126.741150 66.751678,126.215126 
	C62.710991,122.351265 58.043709,124.323395 53.008640,124.153885 
	C50.252567,121.816269 49.816357,117.054146 44.799114,118.910172 
	C45.377544,121.662582 45.907974,124.186592 46.438404,126.710594 
	C44.359493,126.813148 42.280586,126.915703 39.862713,127.029121 
	C39.066658,125.884216 38.609566,124.728432 38.003181,122.923447 
	C37.425262,119.204857 36.996635,116.135468 36.878696,112.959381 
	C38.094700,111.228462 38.855869,109.498543 39.947010,108.010590 
	C40.979870,106.602104 42.358948,105.447502 43.585754,104.181244 
z"/>
<path fill="#191726" opacity="1.000000" stroke="none" 
	d="
M101.052826,106.638504 
	C99.734398,108.137276 98.515511,109.278473 96.822479,110.589508 
	C92.234482,111.509819 88.120636,112.260292 84.006783,113.010773 
	C84.092087,109.984726 83.538399,106.687767 87.648605,105.113525 
	C92.611984,105.243050 93.678589,101.421875 96.071106,98.152374 
	C97.439842,96.908707 98.219017,95.954239 98.998199,94.999771 
	C99.758926,93.885399 100.519646,92.771027 101.280365,91.656647 
	C102.143135,92.895645 103.860306,94.248970 103.712616,95.352768 
	C103.218773,99.043594 102.057816,102.645164 101.052826,106.638504 
z"/>
<path fill="#191726" opacity="1.000000" stroke="none" 
	d="
M69.901787,108.368805 
	C64.862762,108.180573 59.823738,107.992332 54.385101,107.644516 
	C53.851849,106.383926 53.718212,105.282913 54.202003,104.173721 
	C62.543430,104.095718 70.267426,104.025894 77.991425,103.956062 
	C78.159660,103.962914 78.327888,103.969765 78.748398,103.988678 
	C78.446693,104.882385 77.892715,105.764015 76.739090,106.867630 
	C74.060226,107.516014 71.981003,107.942413 69.901787,108.368805 
z"/>
<path fill="#211E32" opacity="1.000000" stroke="none" 
	d="
M84.056007,113.346176 
	C88.120636,112.260292 92.234482,111.509819 96.674179,110.883347 
	C98.063515,112.199478 99.127014,113.391609 100.638504,115.085907 
	C96.782730,115.579834 93.577332,115.990456 90.181892,116.695694 
	C86.810661,118.056137 85.061897,116.573486 84.056007,113.346176 
z"/>
<path fill="#224D5E" opacity="1.000000" stroke="none" 
	d="
M46.664825,126.841263 
	C45.907974,124.186592 45.377544,121.662582 44.799114,118.910172 
	C49.816357,117.054146 50.252567,121.816269 52.600876,124.032242 
	C51.739651,125.381348 50.725914,126.513390 49.431496,127.927284 
	C48.397625,127.796730 47.644432,127.384331 46.664825,126.841263 
z"/>
<path fill="#191726" opacity="1.000000" stroke="none" 
	d="
M84.288559,101.022423 
	C85.105957,98.397141 86.251915,95.823387 87.397873,93.249641 
	C88.103188,93.428703 88.808510,93.607758 89.513832,93.786812 
	C89.126152,96.632523 88.738472,99.478233 88.172493,102.661057 
	C86.868507,102.356758 85.742813,101.715355 84.288559,101.022423 
z"/>
<path fill="#352D32" opacity="1.000000" stroke="none" 
	d="
M70.253754,108.493713 
	C71.981003,107.942413 74.060226,107.516014 76.531738,107.106308 
	C75.886528,108.052963 74.849022,108.982941 73.503311,109.980530 
	C72.331978,109.571632 71.468849,109.095123 70.253754,108.493713 
z"/>
<path fill="#5E6074" opacity="1.000000" stroke="none" 
	d="
M107.362381,135.858917 
	C107.416275,136.682617 107.228432,137.727570 106.794434,138.989136 
	C106.739059,138.163879 106.929848,137.122009 107.362381,135.858917 
z"/>
<path fill="#282B46" opacity="1.000000" stroke="none" 
	d="
M127.796509,35.332245 
	C126.427338,35.605610 125.058167,35.878975 123.053543,35.780857 
	C121.954643,34.604481 121.491188,33.799587 121.027733,32.994694 
	C118.509590,31.647953 115.882805,30.468103 113.498390,28.915937 
	C109.783943,26.497971 106.234062,23.827209 102.310684,21.098551 
	C102.327896,19.342072 102.648849,17.750620 103.565445,15.857172 
	C108.391762,15.583197 112.622437,15.611217 116.853111,15.639236 
	C119.865524,20.179569 122.877930,24.719902 126.064079,29.959976 
	C126.757385,32.217224 127.276947,33.774734 127.796509,35.332245 
z"/>
<path fill="#3E373B" opacity="1.000000" stroke="none" 
	d="
M101.509903,14.019670 
	C99.546829,12.433215 97.583748,10.846762 95.394669,8.844071 
	C96.174850,7.473085 97.181030,6.518335 98.387909,5.373149 
	C96.714546,4.465014 95.316116,3.706081 93.917679,2.947148 
	C98.073898,3.857573 102.230110,4.767999 106.765305,6.192279 
	C107.353546,8.725932 107.562813,10.745731 107.368835,12.761908 
	C105.147018,13.178746 103.328461,13.599209 101.509903,14.019670 
z"/>
<path fill="#B3B3A7" opacity="1.000000" stroke="none" 
	d="
M107.772087,12.765530 
	C107.562813,10.745731 107.353546,8.725932 107.108246,6.397968 
	C109.551857,7.744114 112.064369,9.352150 114.493385,11.077725 
	C115.348663,11.685316 115.999451,12.580760 116.350998,13.688950 
	C113.229614,13.610595 110.500854,13.188062 107.772087,12.765530 
z"/>
<path fill="#1C182A" opacity="1.000000" stroke="none" 
	d="
M93.725334,2.947834 
	C95.316116,3.706081 96.714546,4.465014 98.387909,5.373149 
	C97.181030,6.518335 96.174850,7.473085 95.077583,8.695703 
	C93.033737,7.270245 91.080978,5.576920 89.089844,3.540035 
	C90.146080,3.159580 91.240685,3.122684 92.744774,3.050881 
	C93.154259,3.015975 93.532990,2.948521 93.725334,2.947834 
z"/>
<path fill="#8D8585" opacity="1.000000" stroke="none" 
	d="
M107.368835,12.761907 
	C110.500854,13.188062 113.229614,13.610595 116.391556,14.037857 
	C116.855591,14.397233 116.886436,14.751878 116.885193,15.372881 
	C112.622437,15.611217 108.391762,15.583197 103.722580,15.477219 
	C102.863441,15.024391 102.442825,14.649524 101.766052,14.147163 
	C103.328461,13.599209 105.147018,13.178746 107.368835,12.761907 
z"/>
<path fill="#657175" opacity="1.000000" stroke="none" 
	d="
M128.001373,35.326698 
	C127.276947,33.774734 126.757385,32.217224 126.214111,30.266195 
	C127.115959,31.342829 128.041519,32.812981 128.961899,34.639297 
	C128.733704,35.166626 128.483551,35.275192 128.001373,35.326698 
z"/>
<path fill="#657175" opacity="1.000000" stroke="none" 
	d="
M130.829620,36.885036 
	C130.206726,36.711658 129.661240,36.175247 129.072021,35.347622 
	C129.654526,35.544941 130.280762,36.033470 130.829620,36.885036 
z"/>
<path fill="#292843" opacity="1.000000" stroke="none" 
	d="
M25.040184,81.990448 
	C19.768383,80.540207 14.504207,79.080101 13.263672,72.269020 
	C13.997838,71.564133 14.505584,71.299454 15.013330,71.034775 
	C15.823163,70.893539 16.646883,70.801704 17.434244,70.580482 
	C17.665998,70.515366 17.794819,70.083893 18.229851,69.432381 
	C17.137903,68.788635 15.822866,68.381485 15.066181,67.496780 
	C12.973361,65.049866 10.275769,62.672169 9.347710,59.776585 
	C7.745572,54.777843 9.407839,53.274128 15.850574,53.171085 
	C23.992010,59.229965 28.438604,66.666908 27.864185,76.365013 
	C27.750219,78.289162 26.023302,80.117775 25.040184,81.990448 
z"/>
<path fill="#332D37" opacity="1.000000" stroke="none" 
	d="
M43.869560,104.036469 
	C42.358948,105.447502 40.979870,106.602104 39.947010,108.010590 
	C38.855869,109.498543 38.094700,111.228462 36.373566,112.894257 
	C35.220711,112.895065 34.883682,112.854301 34.546650,112.813530 
	C32.280846,109.173836 30.181784,105.415352 27.698959,101.930267 
	C25.528730,98.883965 23.018562,96.059044 20.454554,93.327843 
	C19.764170,92.592430 18.330620,92.554695 16.627232,92.457092 
	C15.334698,92.772873 14.653135,92.828278 13.971573,92.883682 
	C14.798198,88.085426 17.847275,89.663673 20.605885,90.620239 
	C22.395607,91.240822 24.128895,92.024155 26.523951,92.716225 
	C27.441259,92.820419 27.731018,92.915840 28.096581,93.339813 
	C29.902723,96.618782 31.641994,99.542068 33.973648,103.461006 
	C36.191772,99.433762 37.663681,96.761345 39.382607,93.865982 
	C40.914906,92.119888 42.518696,90.762589 43.416759,89.037827 
	C45.097866,85.809196 46.369968,82.367607 47.972633,78.684685 
	C48.749615,76.569382 49.366177,74.784004 49.982742,72.998619 
	C49.992897,77.026321 50.003052,81.054031 50.044064,85.524185 
	C47.697018,89.204750 45.329990,92.450928 42.936623,95.677567 
	C41.743149,97.286560 40.501480,98.859787 38.964485,100.862389 
	C41.930923,101.256279 43.937347,101.522690 45.943764,101.789108 
	C45.346962,102.489960 44.750164,103.190826 43.869560,104.036469 
z"/>
<path fill="#C6AF99" opacity="1.000000" stroke="none" 
	d="
M28.029709,92.984138 
	C27.731018,92.915840 27.441259,92.820419 26.931351,92.697205 
	C26.484596,92.035149 26.266924,91.373764 26.134121,90.100121 
	C26.449377,88.612488 26.679764,87.737129 27.054379,86.564377 
	C28.533371,84.194695 29.868135,82.122391 31.482994,80.135513 
	C32.499401,80.469345 33.235718,80.717743 34.347076,80.951294 
	C36.484135,79.985542 38.246151,79.034622 40.265629,78.077713 
	C40.694218,78.057838 40.865341,78.043953 41.387169,78.005730 
	C42.205265,77.924644 42.672653,77.867897 43.497841,77.848373 
	C44.572334,77.950699 45.289028,78.015785 46.209290,78.237831 
	C46.879307,78.601395 47.345760,78.807999 47.812210,79.014603 
	C46.369968,82.367607 45.097866,85.809196 43.416759,89.037827 
	C42.518696,90.762589 40.914906,92.119888 38.940262,93.840225 
	C34.843838,93.686317 31.436773,93.335228 28.029709,92.984138 
z"/>
<path fill="#2F2833" opacity="1.000000" stroke="none" 
	d="
M31.202900,80.050087 
	C29.868135,82.122391 28.533371,84.194695 26.819431,86.555359 
	C26.440256,86.843719 25.971554,86.883652 25.971554,86.883652 
	C25.668612,85.493050 25.365667,84.102455 25.051453,82.351151 
	C26.023302,80.117775 27.750219,78.289162 27.864185,76.365013 
	C28.438604,66.666908 23.992010,59.229965 16.280285,53.171745 
	C15.053332,50.224514 14.100955,47.466679 13.415321,44.373821 
	C14.413795,44.016075 15.145528,43.993359 16.232286,43.933220 
	C16.823212,43.864590 17.059113,43.833370 17.252594,43.810703 
	C17.210173,43.819256 17.194376,43.734161 17.163090,44.155914 
	C17.117170,45.140312 17.102541,45.702957 17.309757,46.507328 
	C19.076096,48.153358 21.017920,49.307987 22.087761,51.010548 
	C24.876127,55.447994 27.282278,60.125614 29.708477,64.939461 
	C29.736929,65.668480 29.897785,66.165482 29.994160,66.960129 
	C30.354086,71.521881 30.778492,75.785988 31.202900,80.050087 
z"/>
<path fill="#606375" opacity="1.000000" stroke="none" 
	d="
M13.692717,93.011337 
	C14.653135,92.828278 15.334698,92.772873 16.359085,92.715576 
	C18.722395,96.876137 20.830233,100.999680 22.712662,105.223663 
	C23.314434,106.573967 23.319019,108.190414 23.347986,109.868378 
	C20.711195,110.360352 18.323259,110.669037 15.580761,110.982231 
	C15.235468,110.382278 15.244739,109.777824 15.135309,108.971397 
	C14.991090,107.973190 14.965570,107.176956 14.924466,105.973267 
	C18.707745,102.853752 17.782015,98.631622 12.224159,94.921036 
	C12.377512,94.284325 12.895685,93.711655 13.692717,93.011337 
z"/>
<path fill="#998175" opacity="1.000000" stroke="none" 
	d="
M5.055710,24.121635 
	C6.125693,24.380882 7.195676,24.640129 8.691231,25.254816 
	C9.992468,26.428293 10.868133,27.246328 11.771450,28.382488 
	C11.872949,29.119896 11.946795,29.539183 12.021507,30.355972 
	C12.961907,32.015503 13.901440,33.277531 14.917351,34.616165 
	C14.993729,34.692776 15.015959,34.907990 14.822651,35.210045 
	C13.716468,37.696575 12.803591,39.881050 11.890715,42.065529 
	C11.584308,41.665035 11.277901,41.264545 10.910060,40.219185 
	C8.917655,34.423424 6.986682,29.272530 5.055710,24.121635 
z"/>
<path fill="#8D776F" opacity="1.000000" stroke="none" 
	d="
M11.907337,42.379646 
	C12.803591,39.881050 13.716468,37.696575 15.186502,35.069412 
	C16.171911,33.119705 16.623825,31.618896 17.022038,30.103971 
	C17.456291,28.451929 17.840769,26.786804 18.397377,25.487358 
	C20.160036,31.282732 18.363873,35.876629 15.013420,40.431923 
	C15.289552,41.838669 15.583406,42.904655 15.877260,43.970638 
	C15.145528,43.993359 14.413795,44.016075 13.322117,44.105091 
	C12.616100,43.678848 12.270030,43.186306 11.907337,42.379646 
z"/>
<path fill="#8D776F" opacity="1.000000" stroke="none" 
	d="
M4.721161,24.066683 
	C6.986682,29.272530 8.917655,34.423424 10.848185,39.972038 
	C8.927650,36.572617 7.038742,32.759201 5.070282,28.987305 
	C4.396058,27.695383 3.522569,26.507450 2.392914,25.126949 
	C2.826010,24.658503 3.606311,24.335117 4.721161,24.066683 
z"/>
<path fill="#606375" opacity="1.000000" stroke="none" 
	d="
M9.449448,97.836784 
	C9.135845,99.126762 8.502299,100.525391 7.537206,102.027969 
	C7.846941,100.736435 8.488223,99.340927 9.449448,97.836784 
z"/>
<path fill="#1C1A2D" opacity="1.000000" stroke="none" 
	d="
M14.744200,70.870865 
	C14.505584,71.299454 13.997838,71.564133 13.212990,71.911072 
	C12.395175,71.566757 11.854461,71.140167 11.313746,70.713577 
	C12.367520,70.711372 13.421295,70.709160 14.744200,70.870865 
z"/>
<path fill="#A39182" opacity="1.000000" stroke="none" 
	d="
M25.868279,87.171486 
	C25.971554,86.883652 26.440256,86.843719 26.675201,86.852737 
	C26.679764,87.737129 26.449377,88.612488 26.022360,89.769402 
	C25.805489,89.187073 25.785246,88.323196 25.868279,87.171486 
z"/>
<path fill="#606375" opacity="1.000000" stroke="none" 
	d="
M6.820355,102.228592 
	C6.572493,102.735329 6.027066,103.280266 5.183189,103.868881 
	C5.430756,103.363960 5.976774,102.815376 6.820355,102.228592 
z"/>
<path fill="#606375" opacity="1.000000" stroke="none" 
	d="
M11.590471,94.987976 
	C11.500109,95.536018 11.142901,96.209442 10.511965,96.999779 
	C10.600032,96.448914 10.961830,95.781143 11.590471,94.987976 
z"/>
<path fill="#1F1C28" opacity="1.000000" stroke="none" 
	d="
M34.275818,112.975121 
	C34.883682,112.854301 35.220711,112.895065 36.062874,113.000961 
	C36.996635,116.135468 37.425262,119.204857 37.723618,122.678375 
	C35.871449,124.143974 34.149548,125.205421 32.481331,126.233780 
	C31.931925,124.514488 31.380159,122.787827 30.558685,120.982025 
	C29.906519,120.102531 29.524059,119.302177 28.939175,118.233215 
	C30.492825,116.355316 32.248905,114.746010 34.275818,112.975121 
z"/>
<path fill="#75788D" opacity="1.000000" stroke="none" 
	d="
M122.384247,135.006851 
	C122.820076,135.303772 123.283638,135.901932 123.828842,136.777252 
	C123.410995,136.472321 122.911491,135.890213 122.384247,135.006851 
z"/>
<path fill="#585A6F" opacity="1.000000" stroke="none" 
	d="
M32.988754,128.668396 
	C32.893826,128.820908 32.688869,128.813171 32.178066,128.770264 
	C32.207722,128.659454 32.543224,128.583801 32.988754,128.668396 
z"/>
<path fill="#231E2B" opacity="1.000000" stroke="none" 
	d="
M42.606102,3.093695 
	C42.724632,6.827805 44.535980,8.329207 48.078430,7.961195 
	C49.557442,7.807546 51.103886,7.215331 52.488953,7.487566 
	C54.854050,7.952427 58.990864,8.801531 59.060825,9.737571 
	C59.251076,12.283131 58.038452,15.150287 56.699623,17.501507 
	C56.034958,18.668764 53.872128,18.982935 52.093956,19.420593 
	C52.843975,17.971741 53.887096,16.785339 55.147266,15.352083 
	C50.441063,14.459912 46.215149,13.658792 41.846046,12.536556 
	C41.131550,10.134789 40.560238,8.054137 40.008701,5.602571 
	C40.023239,4.488568 40.018005,3.745477 40.012768,3.002387 
	C40.755001,3.012593 41.497238,3.022798 42.606102,3.093695 
z"/>
<path fill="#807470" opacity="1.000000" stroke="none" 
	d="
M39.760399,3.000300 
	C40.018005,3.745477 40.023239,4.488568 39.701614,5.766211 
	C37.240368,7.176876 35.105984,8.052989 32.977940,8.600405 
	C32.955677,7.615292 32.927078,6.958876 33.298279,6.278738 
	C35.178288,5.761847 36.658489,5.268676 38.272278,4.576908 
	C38.598362,3.926767 38.790855,3.475224 38.983345,3.023682 
	C38.983349,3.023682 38.992729,3.002947 38.998005,3.000340 
	C39.171532,2.997894 39.339783,2.998054 39.760399,3.000300 
z"/>
<path fill="#818598" opacity="1.000000" stroke="none" 
	d="
M38.019112,132.992035 
	C38.032940,132.979553 37.961372,132.968109 37.970673,133.000000 
	C37.979977,133.031891 38.005283,133.004532 38.019112,132.992035 
z"/>
<path fill="#88746D" opacity="1.000000" stroke="none" 
	d="
M11.684531,24.938032 
	C11.318379,23.810671 10.952229,22.683310 10.413889,21.244188 
	C10.186057,20.501183 10.130414,20.069939 10.003618,18.998558 
	C9.674323,17.533863 9.416180,16.709305 9.158037,15.884745 
	C9.181113,15.480119 9.204190,15.075493 9.310675,14.108435 
	C9.381250,12.403945 9.368416,11.261889 9.551380,9.855442 
	C10.544600,7.797602 11.342022,6.004150 12.139444,4.210698 
	C15.507559,4.170053 18.875673,4.129409 22.606461,4.493271 
	C21.138727,6.918842 19.308323,8.939907 17.160053,11.139990 
	C16.142200,12.485516 15.442218,13.652025 14.666529,15.205677 
	C14.664165,18.403738 14.917244,21.227266 14.721412,24.019304 
	C14.644268,25.119154 13.565143,26.148724 12.864101,26.959444 
	C12.418786,26.118404 12.051659,25.528219 11.684531,24.938032 
z"/>
<path fill="#AD9B8D" opacity="1.000000" stroke="none" 
	d="
M17.477921,10.960973 
	C19.308323,8.939907 21.138727,6.918842 23.015972,4.569716 
	C23.062813,4.241657 23.503662,4.081728 24.073746,4.224925 
	C27.076427,4.627882 29.509027,4.887642 32.082603,5.354502 
	C32.448547,5.808555 32.673512,6.055507 32.898476,6.302460 
	C32.927078,6.958876 32.955677,7.615292 32.644863,8.717220 
	C30.733206,9.644648 29.160961,10.126562 27.277626,10.545197 
	C26.267946,10.861013 25.569357,11.240110 24.626114,11.838982 
	C23.175343,13.002878 21.969223,13.947001 20.423744,14.871652 
	C19.178951,14.846237 18.273518,14.840297 17.300564,14.850168 
	C17.233042,14.865978 17.106478,14.922710 17.188114,14.531212 
	C17.339142,13.080132 17.408531,12.020553 17.477921,10.960973 
z"/>
<path fill="#2E2A3F" opacity="1.000000" stroke="none" 
	d="
M11.790443,4.029295 
	C11.342022,6.004150 10.544600,7.797602 9.215196,9.825693 
	C8.459359,10.040870 8.235507,10.021408 8.011655,10.001947 
	C5.010664,8.728798 5.060097,6.400180 5.957014,3.476280 
	C7.843967,3.378437 9.642705,3.613164 11.790443,4.029295 
z"/>
<path fill="#262027" opacity="1.000000" stroke="none" 
	d="
M33.298279,6.278738 
	C32.673512,6.055507 32.448547,5.808555 31.986958,5.094576 
	C31.484669,4.143209 31.219006,3.658869 30.953341,3.174529 
	C33.060501,3.139264 35.167660,3.103999 37.716553,3.379974 
	C38.151756,4.052645 38.145226,4.414075 38.138695,4.775506 
	C36.658489,5.268676 35.178288,5.761847 33.298279,6.278738 
z"/>
<path fill="#3D363E" opacity="1.000000" stroke="none" 
	d="
M30.547523,3.144350 
	C31.219006,3.658869 31.484669,4.143209 31.845978,4.887476 
	C29.509027,4.887642 27.076427,4.627882 24.295637,4.149124 
	C26.012197,3.658142 28.076952,3.386157 30.547523,3.144350 
z"/>
<path fill="#747282" opacity="1.000000" stroke="none" 
	d="
M38.272282,4.576908 
	C38.145226,4.414075 38.151756,4.052645 38.168182,3.416036 
	C38.178078,3.140858 38.580177,3.076338 38.781761,3.050009 
	C38.790855,3.475224 38.598362,3.926767 38.272282,4.576908 
z"/>
<path fill="#372C33" opacity="1.000000" stroke="none" 
	d="
M8.010166,10.403208 
	C8.235507,10.021408 8.459359,10.040870 9.019398,10.090082 
	C9.368416,11.261889 9.381250,12.403945 9.275674,13.805983 
	C8.967719,14.057399 8.778174,14.048835 8.304467,14.029236 
	C8.016428,12.946957 8.012553,11.875712 8.010166,10.403208 
z"/>
<path fill="#372C33" opacity="1.000000" stroke="none" 
	d="
M9.005386,16.121775 
	C9.416180,16.709305 9.674323,17.533863 9.909008,18.685766 
	C9.541280,18.128342 9.197008,17.243572 9.005386,16.121775 
z"/>
<path fill="#433536" opacity="1.000000" stroke="none" 
	d="
M11.225037,24.953484 
	C12.051659,25.528219 12.418786,26.118404 12.672998,27.114094 
	C12.310425,27.734806 12.038329,27.916395 11.743797,28.064365 
	C10.868133,27.246328 9.992468,26.428293 9.023375,25.320284 
	C9.541811,25.009851 10.153677,24.989393 11.225037,24.953484 
z"/>
<path fill="#978074" opacity="1.000000" stroke="none" 
	d="
M44.007256,20.879093 
	C43.301178,22.862762 42.595100,24.846432 41.554794,27.335302 
	C40.702377,29.188444 40.184193,30.536386 39.493111,32.161274 
	C38.421680,37.883209 35.184822,33.943996 32.992531,33.642517 
	C32.751312,30.150957 31.225910,26.362867 32.469719,24.090612 
	C34.414970,20.536921 33.214108,14.034553 40.078278,14.385134 
	C41.436321,16.770599 42.721790,18.824846 44.007256,20.879093 
z"/>
<path fill="#181420" opacity="1.000000" stroke="none" 
	d="
M32.949852,34.025570 
	C35.184822,33.943996 38.421680,37.883209 39.907204,32.196060 
	C40.770283,31.974226 41.046368,31.994555 41.322456,32.014885 
	C40.660572,35.947002 42.606472,37.290119 46.246689,37.047134 
	C47.849350,36.940155 49.461693,36.978134 51.853226,36.986305 
	C52.857006,37.042210 53.077198,37.062115 53.122368,37.389347 
	C48.974335,40.162743 45.001328,42.628807 40.711464,45.211075 
	C39.973213,45.483318 39.551811,45.639355 38.779938,45.604034 
	C33.465836,43.076740 33.941246,38.190350 33.023140,33.960625 
	C32.994652,33.977203 32.949852,34.025570 32.949852,34.025570 
z"/>
<path fill="#211E35" opacity="1.000000" stroke="none" 
	d="
M49.444313,56.948860 
	C48.740234,55.625404 48.396858,54.205746 48.403152,52.394989 
	C50.157593,51.671051 51.562363,51.338223 53.229286,50.835579 
	C54.366276,49.779327 55.241112,48.892891 56.504524,47.999435 
	C59.970478,47.018635 63.047848,46.044849 66.125221,45.071064 
	C64.398903,50.322327 61.015358,53.821037 55.551003,55.184185 
	C53.617271,55.666573 51.719315,56.292347 49.444313,56.948860 
z"/>
<path fill="#B09D8F" opacity="1.000000" stroke="none" 
	d="
M44.403801,20.904205 
	C42.721790,18.824846 41.436321,16.770599 40.291840,14.185404 
	C40.951626,13.388860 41.470432,13.123264 41.989235,12.857670 
	C46.215149,13.658792 50.441063,14.459912 55.147266,15.352083 
	C53.887096,16.785339 52.843975,17.971741 51.741730,19.526228 
	C49.388519,20.239315 47.094433,20.584316 44.403801,20.904205 
z"/>
<path fill="#27202E" opacity="1.000000" stroke="none" 
	d="
M53.297390,37.082016 
	C53.077198,37.062115 52.857006,37.042210 52.307873,36.979019 
	C55.816799,30.948975 65.953186,28.757624 71.066048,33.137871 
	C74.188103,35.812572 73.538696,38.938751 70.125458,41.637741 
	C69.350433,41.401215 69.064651,41.153732 68.934738,40.668411 
	C68.729729,39.865543 68.368851,39.300518 68.147186,38.490608 
	C68.825058,37.488918 69.363724,36.732109 70.825089,34.678951 
	C66.755753,34.888760 63.824860,35.039871 60.511505,35.159679 
	C57.851822,35.779591 55.574604,36.430801 53.297390,37.082016 
z"/>
<path fill="#24213A" opacity="1.000000" stroke="none" 
	d="
M83.924629,28.637573 
	C83.197510,29.274815 82.383583,29.568243 81.250496,29.932178 
	C77.364189,27.116777 75.412994,23.397606 74.867340,18.860027 
	C79.904472,20.271503 82.373917,23.822702 83.924629,28.637573 
z"/>
<path fill="#29202A" opacity="1.000000" stroke="none" 
	d="
M68.778870,40.906250 
	C69.064651,41.153732 69.350433,41.401215 69.837250,41.850296 
	C68.913002,42.955284 67.787727,43.858665 66.393829,44.916557 
	C63.047848,46.044849 59.970478,47.018635 56.097992,47.979080 
	C54.764614,47.928089 54.226357,47.890434 53.907986,47.582237 
	C59.011543,45.176548 63.895206,43.041401 68.778870,40.906250 
z"/>
<path fill="#26202C" opacity="1.000000" stroke="none" 
	d="
M41.537560,31.837967 
	C41.046368,31.994555 40.770283,31.974226 40.080101,31.919113 
	C40.184193,30.536386 40.702377,29.188444 41.566216,27.687408 
	C41.858799,28.909893 41.805729,30.285473 41.537560,31.837967 
z"/>
<path fill="#211E35" opacity="1.000000" stroke="none" 
	d="
M51.848289,60.754013 
	C51.301655,60.254017 50.694740,59.447960 50.036442,58.326530 
	C50.586044,58.823421 51.187023,59.635689 51.848289,60.754013 
z"/>
<path fill="#242236" opacity="1.000000" stroke="none" 
	d="
M77.971802,103.599091 
	C70.267426,104.025894 62.543430,104.095718 54.413055,104.067673 
	C52.954487,101.841064 51.902298,99.712318 50.850105,97.583580 
	C51.232689,97.241394 51.615273,96.899208 51.997856,96.557014 
	C58.575993,100.167130 65.334969,100.417336 72.612137,98.084946 
	C74.648109,99.744972 76.300140,101.493546 77.971802,103.599091 
z"/>
<path fill="#222031" opacity="1.000000" stroke="none" 
	d="
M98.668396,95.063332 
	C98.219017,95.954239 97.439842,96.908707 96.329132,97.921722 
	C96.777931,97.029144 97.558266,96.078026 98.668396,95.063332 
z"/>
<path fill="#222031" opacity="1.000000" stroke="none" 
	d="
M116.753654,92.087936 
	C116.745987,92.513275 116.531517,93.026787 116.152634,93.766846 
	C116.174431,93.387634 116.360649,92.781883 116.753654,92.087936 
z"/>
<path fill="#222032" opacity="1.000000" stroke="none" 
	d="
M56.577515,86.018906 
	C57.205601,86.529861 57.437637,87.038071 57.835426,87.772690 
	C55.486191,91.004013 53.896736,90.361710 53.036133,86.385391 
	C54.067402,86.022102 55.124432,86.019127 56.577515,86.018906 
z"/>
<path fill="#252335" opacity="1.000000" stroke="none" 
	d="
M120.866913,33.284966 
	C121.491188,33.799587 121.954643,34.604481 122.640015,35.835007 
	C122.861931,36.260639 122.973930,36.716164 122.895905,36.814354 
	C122.113960,35.800110 121.410034,34.687675 120.866913,33.284966 
z"/>
<path fill="#1C1A2B" opacity="1.000000" stroke="none" 
	d="
M93.201996,23.030022 
	C93.088402,23.135283 92.979286,23.156601 92.870178,23.177921 
	C92.982285,23.100641 93.094383,23.023359 93.201996,23.030022 
z"/>
<path fill="#BAA592" opacity="1.000000" stroke="none" 
	d="
M39.130413,45.795395 
	C39.551811,45.639355 39.973213,45.483318 40.946365,45.440331 
	C43.401962,47.175793 45.305801,48.798195 47.209648,50.420601 
	C46.112148,51.349133 45.014652,52.277664 44.252087,52.922829 
	C45.983528,57.646034 47.549210,61.917057 49.189713,66.848358 
	C49.521217,68.000656 49.777893,68.492691 50.034569,68.984718 
	C50.032925,70.055176 50.031281,71.125626 50.006187,72.597351 
	C49.366177,74.784004 48.749615,76.569382 47.972633,78.684685 
	C47.345760,78.807999 46.879307,78.601395 46.205872,77.806870 
	C44.682934,71.754936 43.168797,66.328926 42.111385,60.815315 
	C41.204876,56.088554 38.650764,53.843231 33.671448,53.972672 
	C33.440151,53.968327 32.977520,53.961872 32.981205,53.560192 
	C32.998699,52.084991 33.012508,51.011471 33.360558,49.922066 
	C35.506668,48.535923 37.318542,47.165661 39.130413,45.795395 
z"/>
<path fill="#998277" opacity="1.000000" stroke="none" 
	d="
M47.373650,50.579056 
	C45.305801,48.798195 43.401962,47.175793 41.263222,45.324127 
	C45.001328,42.628807 48.974335,40.162743 53.122368,37.389347 
	C55.574604,36.430801 57.851822,35.779591 60.734844,35.391327 
	C63.334248,37.176552 64.318794,40.882259 68.007980,38.735493 
	C68.368851,39.300518 68.729729,39.865543 68.934738,40.668411 
	C63.895206,43.041401 59.011543,45.176548 53.720776,47.625237 
	C53.070663,48.050255 52.889271,48.225513 52.392014,48.586403 
	C50.650795,49.465836 49.287064,50.223412 47.923336,50.980988 
	C47.923336,50.980988 47.537655,50.737514 47.373650,50.579056 
z"/>
<path fill="#29202A" opacity="1.000000" stroke="none" 
	d="
M47.926369,51.159920 
	C49.287064,50.223412 50.650795,49.465836 52.434578,49.009308 
	C52.892132,49.875370 52.929634,50.440384 52.967136,51.005394 
	C51.562363,51.338223 50.157593,51.671051 48.390144,52.026985 
	C47.985004,51.814354 47.952316,51.577278 47.926369,51.159920 
z"/>
<path fill="#332D37" opacity="1.000000" stroke="none" 
	d="
M50.158386,68.805710 
	C49.777893,68.492691 49.521217,68.000656 49.312981,67.225983 
	C49.668346,67.504463 49.975273,68.065590 50.158386,68.805710 
z"/>
<path fill="#657175" opacity="1.000000" stroke="none" 
	d="
M128.874039,44.426422 
	C129.000336,44.559212 128.575714,44.683521 128.575714,44.683521 
	C128.575714,44.683521 128.199127,44.451542 128.135620,44.240425 
	C128.321045,44.056786 128.546265,44.144894 128.874039,44.426422 
z"/>
<path fill="#A39182" opacity="1.000000" stroke="none" 
	d="
M28.096581,93.339813 
	C31.436773,93.335228 34.843838,93.686317 38.693249,94.063171 
	C37.663681,96.761345 36.191772,99.433762 33.973648,103.461006 
	C31.641994,99.542068 29.902723,96.618782 28.096581,93.339813 
z"/>
<path fill="#AD917E" opacity="1.000000" stroke="none" 
	d="
M33.902748,53.977020 
	C38.650764,53.843231 41.204876,56.088554 42.111385,60.815315 
	C43.168797,66.328926 44.682934,71.754936 46.002308,77.649918 
	C45.289028,78.015785 44.572334,77.950699 43.466473,77.494263 
	C42.720306,75.695435 42.363312,74.287964 42.006313,72.880493 
	C41.500763,72.971992 40.995209,73.063499 40.489658,73.154999 
	C40.671925,74.780022 40.854195,76.405045 41.036461,78.030067 
	C40.865341,78.043953 40.694218,78.057838 40.110386,77.737526 
	C37.766037,69.594551 35.834393,61.785786 33.902748,53.977020 
z"/>
<path fill="#BAA08C" opacity="1.000000" stroke="none" 
	d="
M33.671448,53.972672 
	C35.834393,61.785786 37.766037,69.594551 39.852924,77.743515 
	C38.246151,79.034622 36.484135,79.985542 34.420563,80.618622 
	C34.676739,77.967209 35.755280,75.607582 35.640274,73.307640 
	C35.533226,71.166893 34.342804,68.980255 33.218777,67.053291 
	C32.894653,66.497635 31.151316,66.769821 30.058643,66.662476 
	C29.897785,66.165482 29.736929,65.668480 29.732536,64.472069 
	C30.783268,60.459816 27.102089,55.706593 32.977520,53.961872 
	C32.977520,53.961872 33.440151,53.968327 33.671448,53.972672 
z"/>
<path fill="#A99181" opacity="1.000000" stroke="none" 
	d="
M29.994160,66.960129 
	C31.151316,66.769821 32.894653,66.497635 33.218777,67.053291 
	C34.342804,68.980255 35.533226,71.166893 35.640274,73.307640 
	C35.755280,75.607582 34.676739,77.967209 34.045525,80.633461 
	C33.235718,80.717743 32.499401,80.469345 31.482992,80.135513 
	C30.778492,75.785988 30.354086,71.521881 29.994160,66.960129 
z"/>
<path fill="#BAA08C" opacity="1.000000" stroke="none" 
	d="
M41.387169,78.005730 
	C40.854195,76.405045 40.671925,74.780022 40.489658,73.154999 
	C40.995209,73.063499 41.500763,72.971992 42.006313,72.880493 
	C42.363312,74.287964 42.720306,75.695435 43.108673,77.457024 
	C42.672653,77.867897 42.205265,77.924644 41.387169,78.005730 
z"/>
<path fill="#BEA894" opacity="1.000000" stroke="none" 
	d="
M32.981205,53.560192 
	C27.102089,55.706593 30.783268,60.459816 29.864941,64.240044 
	C27.282278,60.125614 24.876127,55.447994 22.087761,51.010548 
	C21.017920,49.307987 19.076096,48.153358 17.588120,46.349419 
	C17.494547,45.211239 17.344461,44.472698 17.194376,43.734161 
	C17.194376,43.734161 17.210173,43.819256 17.245064,43.456657 
	C17.201071,42.391682 17.122189,41.689312 17.303555,40.785133 
	C19.348734,40.488083 21.169230,40.578987 22.908848,40.246601 
	C24.743395,39.896069 26.500744,39.141514 28.609646,38.527290 
	C33.703388,41.085812 32.970623,45.653046 33.026321,49.937950 
	C33.012508,51.011471 32.998699,52.084991 32.981205,53.560192 
z"/>
<path fill="#2A1F22" opacity="1.000000" stroke="none" 
	d="
M17.043304,40.986938 
	C17.122189,41.689312 17.201071,42.391682 17.287483,43.448105 
	C17.059113,43.833370 16.823212,43.864590 16.232286,43.933220 
	C15.583406,42.904655 15.289552,41.838669 15.286953,40.501221 
	C16.066574,40.482151 16.554939,40.734547 17.043304,40.986938 
z"/>
<path fill="#2A1F22" opacity="1.000000" stroke="none" 
	d="
M17.163090,44.155914 
	C17.344461,44.472698 17.494547,45.211239 17.366272,46.107689 
	C17.102541,45.702957 17.117170,45.140312 17.163090,44.155914 
z"/>
<path fill="#1C1721" opacity="1.000000" stroke="none" 
	d="
M41.846046,12.536556 
	C41.470432,13.123264 40.951626,13.388860 40.219261,13.854184 
	C33.214108,14.034553 34.414970,20.536921 32.469719,24.090612 
	C31.225910,26.362867 32.751312,30.150957 32.992531,33.642517 
	C32.949852,34.025570 32.994652,33.977203 32.663029,34.083817 
	C30.889585,35.055042 29.447765,35.919655 27.695194,36.479115 
	C26.601295,30.366272 25.818148,24.558577 25.035002,18.750883 
	C24.507946,18.485912 23.980890,18.220943 23.453833,17.955973 
	C21.718204,20.346443 19.982574,22.736912 18.246944,25.127382 
	C17.840769,26.786804 17.456291,28.451929 17.022038,30.103971 
	C16.623825,31.618896 16.171911,33.119705 15.379810,34.767361 
	C15.015959,34.907990 14.993729,34.692776 14.720829,34.294502 
	C13.638834,32.583641 12.829737,31.271053 12.020640,29.958467 
	C11.946795,29.539183 11.872949,29.119896 11.771450,28.382488 
	C12.038329,27.916395 12.310425,27.734806 12.751186,27.364946 
	C13.565143,26.148724 14.644268,25.119154 14.721412,24.019304 
	C14.917244,21.227266 14.664165,18.403738 15.061487,15.212092 
	C16.056927,14.861814 16.581701,14.892262 17.106478,14.922710 
	C17.106478,14.922710 17.233042,14.865978 17.204756,15.164270 
	C17.280567,16.490126 17.384666,17.517691 17.577723,19.423351 
	C18.991707,17.411507 19.877405,16.151316 20.763105,14.891126 
	C21.969223,13.947001 23.175343,13.002878 24.925177,11.826710 
	C26.175499,11.265935 26.882107,10.937205 27.588715,10.608476 
	C29.160961,10.126562 30.733206,9.644648 32.638527,9.045918 
	C35.105984,8.052989 37.240368,7.176876 39.681839,6.137124 
	C40.560238,8.054137 41.131550,10.134789 41.846046,12.536556 
z"/>
<path fill="#8D776F" opacity="1.000000" stroke="none" 
	d="
M12.021507,30.355972 
	C12.829737,31.271053 13.638834,32.583641 14.644451,34.217892 
	C13.901440,33.277531 12.961907,32.015503 12.021507,30.355972 
z"/>
<path fill="#998175" opacity="1.000000" stroke="none" 
	d="
M18.397377,25.487358 
	C19.982574,22.736912 21.718204,20.346443 23.453833,17.955973 
	C23.980890,18.220943 24.507946,18.485912 25.035002,18.750883 
	C25.818148,24.558577 26.601295,30.366272 27.738997,36.773911 
	C28.159641,37.770393 28.225731,38.166931 28.291819,38.563473 
	C26.500744,39.141514 24.743395,39.896069 22.908848,40.246601 
	C21.169230,40.578987 19.348734,40.488083 17.303555,40.785133 
	C16.554939,40.734547 16.066574,40.482151 15.304676,40.160461 
	C18.363873,35.876629 20.160036,31.282732 18.397377,25.487358 
z"/>
<path fill="#433536" opacity="1.000000" stroke="none" 
	d="
M17.188114,14.531212 
	C16.581701,14.892262 16.056927,14.861814 15.137192,14.824950 
	C15.442218,13.652025 16.142200,12.485516 17.160051,11.139990 
	C17.408531,12.020553 17.339142,13.080132 17.188114,14.531212 
z"/>
<path fill="#88746D" opacity="1.000000" stroke="none" 
	d="
M20.423744,14.871652 
	C19.877405,16.151316 18.991707,17.411507 17.577723,19.423351 
	C17.384666,17.517691 17.280567,16.490126 17.272278,15.148459 
	C18.273518,14.840297 19.178951,14.846237 20.423744,14.871652 
z"/>
<path fill="#88746D" opacity="1.000000" stroke="none" 
	d="
M27.277626,10.545196 
	C26.882107,10.937205 26.175499,11.265935 25.169830,11.606936 
	C25.569357,11.240110 26.267946,10.861013 27.277626,10.545196 
z"/>
<path fill="#998277" opacity="1.000000" stroke="none" 
	d="
M28.609646,38.527290 
	C28.225731,38.166931 28.159641,37.770393 28.049747,37.079056 
	C29.447765,35.919655 30.889585,35.055042 32.691517,34.067238 
	C33.941246,38.190350 33.465836,43.076740 38.779938,45.604034 
	C37.318542,47.165661 35.506668,48.535923 33.360558,49.922066 
	C32.970623,45.653046 33.703388,41.085812 28.609646,38.527290 
z"/>
<path fill="#191623" opacity="1.000000" stroke="none" 
	d="
M53.229286,50.835579 
	C52.929634,50.440384 52.892132,49.875370 52.812065,48.887451 
	C52.889271,48.225513 53.070663,48.050255 53.500885,47.895775 
	C54.226357,47.890434 54.764614,47.928089 55.709412,47.986099 
	C55.241112,48.892891 54.366276,49.779327 53.229286,50.835579 
z"/>
<path fill="#29202A" opacity="1.000000" stroke="none" 
	d="
M68.147186,38.490608 
	C64.318794,40.882259 63.334248,37.176552 61.117310,35.422630 
	C63.824860,35.039871 66.755753,34.888760 70.825089,34.678951 
	C69.363724,36.732109 68.825058,37.488918 68.147186,38.490608 
z"/>
</svg>